<svg xmlns="http://www.w3.org/2000/svg" width="145" height="40" fill="none"><g clip-path="url(#a)"><path fill="#1f1f1f" d="M124.962.364H20.038C9.172.364.364 9.155.364 20s8.808 19.636 19.674 19.636h104.924c10.866 0 19.674-8.791 19.674-19.636S135.828.364 124.962.364" style="fill:#1f1f1f;fill:color(display-p3 .1216 .1216 .1216);fill-opacity:1"/><path fill="#34a853" d="M41.533 17.303H15.302v-4.106c0-2.23 1.925-4.106 4.21-4.106h17.81c2.285 0 4.21 1.877 4.21 4.106z" style="fill:#34a853;fill:color(display-p3 .2039 .6588 .3255);fill-opacity:1"/><path fill="#fbbc04" d="M41.533 21.09H15.302v-4.363c0-2.369 1.925-4.363 4.21-4.363h17.81c2.285 0 4.21 1.994 4.21 4.363z" style="fill:#fbbc04;fill:color(display-p3 .9843 .7373 .0157);fill-opacity:1"/><path fill="#ea4335" d="M41.533 24.727H15.302v-4.363c0-2.37 1.925-4.364 4.21-4.364h17.81c2.285 0 4.21 1.995 4.21 4.364z" style="fill:#ea4335;fill:color(display-p3 .9176 .2627 .2078);fill-opacity:1"/><path fill="url(#b)" d="m15.302 18.357 16.649 3.754c1.916.47 4.072 0 5.629-1.173l3.953-2.816v8.799c0 2.228-1.917 3.988-4.193 3.988H19.495c-2.276 0-4.192-1.76-4.192-3.988z"/><path fill="#fff" d="m50.419 15.636 2.557-6.77h1.184l2.567 6.77h-1.146l-.625-1.74H52.19l-.625 1.74zm2.87-4.774-.749 2.07h2.065l-.748-2.07-.256-.776h-.057zm6.106 4.926a2.24 2.24 0 0 1-1.184-.322 2.4 2.4 0 0 1-.834-.907 2.86 2.86 0 0 1-.303-1.333q0-.748.303-1.324.313-.577.834-.908.53-.33 1.184-.33.558 0 .957.245.407.246.596.558h.057l-.057-.671v-1.93h1.014v6.77h-.957v-.643h-.057q-.19.312-.596.558-.398.237-.957.237m.151-.936q.38 0 .71-.199.342-.198.54-.558a1.74 1.74 0 0 0 .21-.87q0-.5-.21-.86a1.4 1.4 0 0 0-.54-.567 1.36 1.36 0 0 0-.71-.199q-.378 0-.71.199a1.5 1.5 0 0 0-.54.567q-.208.36-.208.86 0 .503.208.87.209.36.54.558.332.2.71.199m5.64.936A2.24 2.24 0 0 1 64 15.466a2.4 2.4 0 0 1-.833-.907 2.86 2.86 0 0 1-.303-1.333q0-.748.303-1.324.312-.577.833-.908.531-.33 1.185-.33.558 0 .956.245.407.246.597.558h.057l-.057-.671v-1.93h1.014v6.77h-.957v-.643h-.057q-.189.312-.597.558-.398.237-.956.237m.151-.936q.38 0 .71-.199.342-.198.54-.558a1.74 1.74 0 0 0 .209-.87q0-.5-.209-.86a1.4 1.4 0 0 0-.54-.567 1.36 1.36 0 0 0-.71-.199q-.379 0-.71.199a1.5 1.5 0 0 0-.54.567q-.21.36-.209.86 0 .503.209.87.209.36.54.558.331.2.71.199m6.343-.615v-2.534h-.843v-.888h.843V9.453h1.023v1.362h1.184v.888h-1.184v2.317q0 .36.142.548.151.19.502.19.18 0 .303-.048a1.3 1.3 0 0 0 .266-.133v.993a2 2 0 0 1-.341.104q-.18.038-.427.038-.672 0-1.07-.388-.399-.396-.398-1.087m5.277 1.55q-.749 0-1.316-.34a2.43 2.43 0 0 1-.891-.917 2.6 2.6 0 0 1-.322-1.304q0-.72.322-1.296.322-.586.89-.926.57-.34 1.317-.34.739 0 1.307.34.57.34.89.926.323.577.323 1.296 0 .728-.322 1.304-.323.577-.89.917-.57.34-1.308.34m0-.935q.398 0 .739-.19.34-.198.55-.557a1.7 1.7 0 0 0 .217-.88q0-.51-.218-.87a1.4 1.4 0 0 0-.549-.557 1.494 1.494 0 0 0-1.487 0 1.5 1.5 0 0 0-.56.558q-.207.36-.207.87t.208.879q.217.36.559.557.35.19.748.19M55.479 30.38a4.7 4.7 0 0 1-1.796-.346 4.8 4.8 0 0 1-1.474-.965q-.645-.63-1.016-1.471a4.7 4.7 0 0 1-.36-1.842q0-.99.36-1.83a4.6 4.6 0 0 1 1.003-1.471q.644-.63 1.487-.977a4.7 4.7 0 0 1 1.796-.346q1.015 0 1.87.358a4 4 0 0 1 1.45 1.002l-.942.927a2.9 2.9 0 0 0-1.04-.742 3.3 3.3 0 0 0-1.338-.26 3.24 3.24 0 0 0-1.623.42q-.743.409-1.201 1.163-.446.741-.446 1.756 0 1.013.458 1.768.459.742 1.202 1.162a3.3 3.3 0 0 0 1.622.408q.805 0 1.462-.297a2.65 2.65 0 0 0 1.053-.865q.409-.556.495-1.336h-3.034v-1.199h4.31q.075.335.075.705v.012q0 1.286-.57 2.25a3.9 3.9 0 0 1-1.549 1.484q-.99.532-2.254.532m8.361 0q-.978 0-1.722-.445a3.2 3.2 0 0 1-1.164-1.2q-.421-.753-.421-1.706 0-.94.42-1.694a3.16 3.16 0 0 1 1.165-1.211q.744-.445 1.722-.445.966 0 1.71.445.743.444 1.164 1.211.42.755.42 1.694 0 .953-.42 1.706-.422.755-1.165 1.2t-1.709.445m0-1.224q.52 0 .966-.248.446-.26.719-.73.284-.48.284-1.149 0-.668-.284-1.137a1.85 1.85 0 0 0-.719-.73 1.954 1.954 0 0 0-1.945 0q-.445.247-.73.73-.273.47-.273 1.137 0 .668.273 1.15.285.47.73.73.459.247.979.247m7.5 1.224q-.98 0-1.722-.445a3.2 3.2 0 0 1-1.164-1.2q-.421-.753-.421-1.706 0-.94.42-1.694a3.16 3.16 0 0 1 1.165-1.211q.744-.445 1.722-.445.966 0 1.71.445.743.444 1.164 1.211.42.755.42 1.694 0 .953-.42 1.706-.421.755-1.165 1.2-.742.444-1.71.445m0-1.224q.52 0 .966-.248.446-.26.719-.73.284-.48.284-1.149 0-.668-.284-1.137a1.85 1.85 0 0 0-.719-.73 1.954 1.954 0 0 0-1.945 0q-.445.247-.73.73-.273.47-.273 1.137 0 .668.272 1.15.285.47.731.73.459.247.979.247m7.376 3.894q-.83 0-1.437-.272a2.7 2.7 0 0 1-.966-.68 2.6 2.6 0 0 1-.533-.84l1.239-.52q.198.495.632.804.446.321 1.065.321.867 0 1.363-.519.507-.52.508-1.471v-.606h-.075a2.15 2.15 0 0 1-.83.717q-.52.26-1.189.26a2.8 2.8 0 0 1-1.474-.408 3.05 3.05 0 0 1-1.078-1.138q-.408-.741-.408-1.73 0-1.002.408-1.732a3 3 0 0 1 1.078-1.15 2.8 2.8 0 0 1 1.474-.407q.668 0 1.19.272.531.27.83.717h.073v-.792h1.276v5.972q0 1.026-.408 1.743-.397.717-1.103 1.088-.706.37-1.635.371m.012-4.018q.495 0 .917-.235.42-.247.681-.705.26-.47.26-1.125 0-.68-.26-1.137a1.76 1.76 0 0 0-.68-.705 1.85 1.85 0 0 0-.918-.235 1.84 1.84 0 0 0-1.61.94q-.26.457-.26 1.137 0 .668.26 1.138.26.457.681.692.433.235.93.235m4.712 1.15V21.33h1.338v8.852zm5.74.198q-.929 0-1.66-.433a3.13 3.13 0 0 1-1.152-1.187q-.408-.755-.408-1.719 0-.902.396-1.669a3.16 3.16 0 0 1 1.102-1.224q.719-.47 1.648-.47.98 0 1.66.42.693.421 1.052 1.15.36.73.36 1.645 0 .135-.013.247a1 1 0 0 1-.012.174h-4.88q.099.94.656 1.409.57.47 1.288.47.645 0 1.066-.285.421-.296.668-.73l1.103.532a3.4 3.4 0 0 1-1.115 1.212q-.705.458-1.759.458m-.062-5.564a1.68 1.68 0 0 0-1.14.408q-.47.408-.631 1.088h3.505a1.7 1.7 0 0 0-.21-.668 1.53 1.53 0 0 0-.57-.58q-.372-.249-.954-.248m8.505 5.366-2.378-8.852h1.51l1.413 5.749.149.766h.074l.186-.767 1.783-5.748h1.363l1.709 5.749.186.754h.074l.149-.755 1.412-5.748h1.499l-2.341 8.852h-1.437l-1.697-5.873-.198-.828h-.074l-.211.828-1.771 5.873zm11.617.198q-.681 0-1.214-.26a2.04 2.04 0 0 1-.83-.754 2.06 2.06 0 0 1-.297-1.1q0-.669.346-1.138.36-.483.954-.73a3.4 3.4 0 0 1 1.313-.247q.595 0 1.041.111.458.112.693.235v-.333q0-.619-.446-.99-.445-.37-1.152-.37-.483 0-.916.222a1.8 1.8 0 0 0-.694.581l-.917-.704a2.8 2.8 0 0 1 1.078-.89q.681-.335 1.487-.335 1.374 0 2.118.68.743.669.743 1.88v3.944h-1.301v-.78h-.074q-.248.384-.743.68-.495.298-1.189.298m.235-1.088q.52 0 .917-.248.396-.247.619-.643.235-.407.235-.877a2.8 2.8 0 0 0-.669-.26 3 3 0 0 0-.817-.111q-.818 0-1.164.334a1.04 1.04 0 0 0-.347.79q0 .445.334.73t.892.285m4.557.89V21.33h1.338v8.852zm2.928 0V21.33h1.337v8.852zm5.74.198q-.929 0-1.66-.433a3.1 3.1 0 0 1-1.152-1.187q-.409-.755-.409-1.719 0-.902.397-1.669.396-.766 1.102-1.224.719-.47 1.648-.47.978 0 1.659.42.694.421 1.053 1.15.36.73.36 1.645 0 .135-.013.247a1 1 0 0 1-.012.174h-4.881q.1.94.657 1.409.57.47 1.288.47.645 0 1.065-.285.423-.296.669-.73l1.103.532a3.4 3.4 0 0 1-1.115 1.212q-.706.458-1.759.458m-.062-5.564q-.669 0-1.14.408t-.631 1.088h3.505a1.7 1.7 0 0 0-.21-.668 1.54 1.54 0 0 0-.57-.58q-.372-.249-.954-.248m4.789 3.536v-3.314h-1.103v-1.162h1.103v-1.78h1.337v1.78h1.549v1.162h-1.549v3.03q0 .47.186.717.198.247.657.247.234 0 .396-.062.173-.062.347-.173v1.298a2.6 2.6 0 0 1-.446.136 2.8 2.8 0 0 1-.557.05q-.88 0-1.4-.507-.52-.519-.52-1.422" style="fill:#fff;fill-opacity:1"/><path stroke="#747775" d="M124.962.364H20.038C9.172.364.364 9.155.364 20s8.808 19.636 19.674 19.636h104.924c10.866 0 19.674-8.791 19.674-19.636S135.828.364 124.962.364Z" style="stroke:#747775;stroke:color(display-p3 .4549 .4667 .4588);stroke-opacity:1"/></g><defs><linearGradient id="b" x1="27.167" x2="13.715" y1="24.76" y2="40.551" gradientUnits="userSpaceOnUse"><stop stop-color="#4285f4" style="stop-color:#4285f4;stop-color:color(display-p3 .2588 .5216 .9569);stop-opacity:1"/><stop offset="1" stop-color="#1b74e8" style="stop-color:#1b74e8;stop-color:color(display-p3 .1059 .4549 .9098);stop-opacity:1"/></linearGradient><clipPath id="a"><path fill="#fff" d="M0 0h145v40H0z" style="fill:#fff;fill-opacity:1"/></clipPath></defs></svg>