<svg class="wallet-logo" width="256" height="256" viewBox="0 0 256 256" fill="none" xmlns="http://www.w3.org/2000/svg">
    <style>
        @keyframes spin-hue {
        0%   { fill: oklch(65% 0.25 0); }
        16%  { fill: oklch(65% 0.25 60); }
        33%  { fill: oklch(65% 0.25 120); }
        50%  { fill: oklch(65% 0.25 180); }
        66%  { fill: oklch(65% 0.25 240); }
        83%  { fill: oklch(65% 0.25 300); }
        100% { fill: oklch(65% 0.25 360); }
        }
        .wallet-logo .background { animation: spin-hue 30s linear infinite; }
    </style>
    <path class="background" d="M0 32C0 14.3269 14.3269 0 32 0H224C241.673 0 256 14.3269 256 32V224C256 241.673 241.673 256 224 256H32C14.3269 256 0 241.673 0 224V32Z" fill="#FF0099"/>
    <path d="M68 58C56.9688 58 48 66.9688 48 78V168C48 179.031 56.9688 188 68 188H188C199.031 188 208 179.031 208 168V108C208 96.9688 199.031 88 188 88H70.5C66.3437 88 63 84.6563 63 80.5C63 76.3437 66.3437 73 70.5 73H190.5C194.656 73 198 69.6563 198 65.5C198 61.3437 194.656 58 190.5 58H68ZM178 128C183.531 128 188 132.469 188 138C188 143.531 183.531 148 178 148C172.469 148 168 143.531 168 138C168 132.469 172.469 128 178 128Z" fill="white"/>
</svg>